# xmcd
#
# Track frame offsets:
#   150
#   20847
#   34210
#   56622
#   71960
#   88385
#   114445
#   136971
#   158579
#
# Disc length: 2603 seconds
#
# Revision: 0
# Processed by: cddbd v1.5.2PL0 Copyright (c) Steve Scherf et al.
# Submitted via: GXTranscoder 2.0.1939
#
DISCID=7f0a2909
DTITLE=Konstantin Wecker - Uferlos
DYEAR=1900
DGENRE=UnClassifiable
TTITLE0=Uferlos
TTITLE1=Was ich an Dir mag
TTITLE2=Liebeslied im alten Stil
TTITLE3=Sage nein!
TTITLE4=Kleines Herbstlied
TTITLE5=Kokain
TTITLE6=Tropenträume
TTITLE7=Quetata Nuova Realta
TTITLE8=Die ballade von Antonio Amadeeu Kiowa
EXTD=
EXTT0=
EXTT1=
EXTT2=
EXTT3=
EXTT4=
EXTT5=
EXTT6=
EXTT7=
EXTT8=
PLAYORDER=
